<?xml version="1.0" encoding="utf-8"?>
<!-- Generator: Adobe Illustrator 21.1.0, SVG Export Plug-In . SVG Version: 6.00 Build 0)  -->
<svg version="1.1" id="Layer_1" xmlns="http://www.w3.org/2000/svg" xmlns:xlink="http://www.w3.org/1999/xlink" x="0px" y="0px"
	 viewBox="0 0 40 792" style="enable-background:new 0 0 40 792;" xml:space="preserve">
<style type="text/css">
	.st0{fill:#010101;}
</style>
<path class="st0" d="M29.8,752.8c-0.1-0.7-0.1-1.4-0.1-1.8c0-3.3-1.9-6.3-4.6-7.8v-4.3c0-1.2-0.7-2.3-1.6-2.9V0h-5.2v736
	c-1,0.6-1.6,1.7-1.6,2.9v4.3c-2.8,1.5-4.6,4.5-4.6,7.8c0,0.5,0,1.1-0.1,1.8c-0.4,3.5-1.5,6.9-3.2,10c-1.1,1.9-1.7,4.2-1.7,6.5
	c0,7.9,6.7,14.3,14.8,13.8c6.9-0.5,12.4-6.1,12.8-12.9c0.2-2.8-0.5-5.3-1.7-7.6C31.2,759.6,30.2,756.2,29.8,752.8z"/>
</svg>
